<svg xmlns="http://www.w3.org/2000/svg" viewBox="0 0 512 400">
  <defs/>
  <path fill="white" d="M501 325H380a128 128 0 10-248 0H11a11 11 0 000 22h490a11 11 0 000-22zm-143 0H154a107 107 0 11204 0z"/>
  <path fill="white" d="M 96 283 H 32 a 11 11 0 0 0 0 21 h 64 a 11 11 0 0 0 0 -21 z M 480 283 h -64 a 11 11 0 0 0 0 21 h 64 a 11 11 0 1 0 0 -21 z M 422 127 c -4 -4 -11 -4 -15 0 l -45 46 a 11 11 0 0 0 15 15 l 45 -46 c 4 -4 4 -10 0 -15 z M 256 59 c -6 0 -11 4 -11 10 v 64 a 11 11 0 1 0 22 0 V 69 c 0 -6 -5 -10 -11 -10 z M 150 173 l -45 -46 a 11 11 0 1 0 -15 16 l 45 45 a 11 11 0 0 0 15 -15 z M 286 250 l -22 -23 c -2 -2 -5 -3 -8 -3 s -6 1 -8 3 l -22 23 a 11 11 0 1 0 15 15 l 4 -5 v 39 a 11 11 0 1 0 22 0 v -39 l 4 5 c 4 4 11 4 15 0 s 4 -11 0 -15 z"/>
</svg>