<svg xmlns="http://www.w3.org/2000/svg" viewBox="0 0 512 400">
  <defs/>
  <path fill="white" d="M501 325H380a128 128 0 10-248 0H11a11 11 0 000 22h490a11 11 0 000-22zm-143 0H154a107 107 0 11204 0z"/>
  <path fill="white" d="M96 283H32a11 11 0 000 21h64a11 11 0 100-21zM480 283h-64a11 11 0 000 21h64a11 11 0 100-21zM422 127c-4-4-11-4-15 0l-45 46a11 11 0 0015 15l45-46c4-4 4-10 0-15zM256 59c-6 0-11 4-11 10v64a11 11 0 1022 0V69c0-6-5-10-11-10zM150 173l-45-46a11 11 0 00-15 15v1l45 45a11 11 0 0015-15zM285 264c-4-4-11-4-15 0l-4 5v-39a11 11 0 10-22 0v39l-4-5a11 11 0 10-15 15l22 23a11 11 0 0016 0l22-23c4-4 4-11 0-15z"/>
</svg>